<svg width="100" height="100" viewBox="0 0 100 100" fill="none" xmlns="http://www.w3.org/2000/svg">
<g clip-path="url(#clip0_6_2)">
<rect width="100" height="100" fill="#E26F1B"/>
<path d="M20 0V100" stroke="white" stroke-width="0.1"/>
<path d="M10 0V100" stroke="white" stroke-width="0.1"/>
<path d="M40 0V100" stroke="white" stroke-width="0.1"/>
<path d="M30 0V100" stroke="white" stroke-width="0.1"/>
<path d="M60 0V100" stroke="white" stroke-width="0.1"/>
<path d="M50 0V100" stroke="white" stroke-width="0.1"/>
<path d="M80 0V100" stroke="white" stroke-width="0.1"/>
<path d="M70 0V100" stroke="white" stroke-width="0.1"/>
<path d="M100 0V100" stroke="white" stroke-width="0.1"/>
<path d="M90 0V100" stroke="white" stroke-width="0.1"/>
<path d="M0 80H100" stroke="white" stroke-width="0.1"/>
<path d="M0 90H100" stroke="white" stroke-width="0.1"/>
<path d="M0 60L100 60" stroke="white" stroke-width="0.1"/>
<path d="M0 70H100" stroke="white" stroke-width="0.1"/>
<path d="M0 40L100 40" stroke="white" stroke-width="0.1"/>
<path d="M0 50L100 50" stroke="white" stroke-width="0.1"/>
<path d="M0 20L100 20" stroke="white" stroke-width="0.1"/>
<path d="M0 30L100 30" stroke="white" stroke-width="0.1"/>
<path d="M0 10L100 10" stroke="white" stroke-width="0.1"/>
<mask id="path-22-inside-1_6_2" fill="white">
<path d="M10 10H40V20H10V10Z"/>
</mask>
<path d="M10 10H40V20H10V10Z" fill="#E26F1B"/>
<path d="M10 10V9.95H9.95V10H10ZM40 10H40.05V9.95H40V10ZM40 20V20.05H40.05V20H40ZM10 20H9.95V20.05H10V20ZM10 10.05H40V9.95H10V10.05ZM39.95 10V20H40.05V10H39.95ZM40 19.95H10V20.05H40V19.95ZM10.05 20V10H9.95V20H10.05Z" fill="white" mask="url(#path-22-inside-1_6_2)"/>
<mask id="path-24-inside-2_6_2" fill="white">
<path d="M10 80H80V90H10V80Z"/>
</mask>
<path d="M10 80H80V90H10V80Z" fill="#E26F1B"/>
<path d="M10 80V79.95H9.95V80H10ZM80 80H80.05V79.95H80V80ZM80 90V90.05H80.05V90H80ZM10 90H9.95V90.05H10V90ZM10 80.05H80V79.95H10V80.05ZM79.95 80V90H80.05V80H79.95ZM80 89.95H10V90.05H80V89.95ZM10.05 90V80H9.95V90H10.05Z" fill="white" mask="url(#path-24-inside-2_6_2)"/>
<path d="M12.4668 87.8049H10V80H12.5761C13.3515 80 14.0151 80.1563 14.5667 80.4688C15.1184 80.7787 15.5412 81.2246 15.8353 81.8064C16.1293 82.3857 16.2763 83.0793 16.2763 83.8872C16.2763 84.7002 16.128 85.4002 15.8314 85.987C15.5347 86.5714 15.1028 87.0211 14.5355 87.3361C13.9683 87.6486 13.2787 87.8049 12.4668 87.8049ZM10.968 86.9665H12.4044C13.0653 86.9665 13.6131 86.842 14.0476 86.593C14.4822 86.344 14.8061 85.9896 15.0195 85.5297C15.2329 85.0699 15.3396 84.5224 15.3396 83.8872C15.3396 83.2571 15.2342 82.7147 15.0234 82.2599C14.8126 81.8026 14.4978 81.452 14.0788 81.2081C13.6599 80.9616 13.1382 80.8384 12.5137 80.8384H10.968V86.9665Z" fill="white"/>
<path d="M20.5636 87.9268C19.9859 87.9268 19.4876 87.8023 19.0687 87.5534C18.6524 87.3018 18.331 86.9512 18.1046 86.5015C17.8808 86.0493 17.7689 85.5234 17.7689 84.9238C17.7689 84.3242 17.8808 83.7957 18.1046 83.3384C18.331 82.8786 18.6458 82.5203 19.0492 82.2637C19.4551 82.0046 19.9287 81.875 20.4699 81.875C20.7822 81.875 21.0906 81.9258 21.395 82.0274C21.6995 82.1291 21.9766 82.2942 22.2264 82.5229C22.4762 82.749 22.6753 83.0488 22.8236 83.4223C22.9719 83.7957 23.0461 84.2556 23.0461 84.8018V85.1829H18.4247V84.4055H22.1093C22.1093 84.0752 22.0416 83.7805 21.9063 83.5213C21.7736 83.2622 21.5837 83.0577 21.3365 82.9078C21.0919 82.7579 20.803 82.6829 20.4699 82.6829C20.103 82.6829 19.7856 82.7718 19.5176 82.9497C19.2521 83.125 19.0479 83.3537 18.9048 83.6357C18.7616 83.9177 18.6901 84.22 18.6901 84.5427V85.061C18.6901 85.503 18.7681 85.8778 18.9243 86.1852C19.083 86.4901 19.3029 86.7226 19.5839 86.8826C19.8649 87.0401 20.1915 87.1189 20.5636 87.1189C20.8056 87.1189 21.0242 87.0859 21.2194 87.0198C21.4171 86.9512 21.5876 86.8496 21.7307 86.7149C21.8738 86.5777 21.9844 86.4075 22.0625 86.2043L22.9524 86.4482C22.8587 86.7429 22.7013 87.002 22.4801 87.2256C22.2589 87.4466 21.9857 87.6194 21.6604 87.7439C21.3352 87.8659 20.9696 87.9268 20.5636 87.9268Z" fill="white"/>
<path d="M29.442 81.9512L27.225 87.8049H26.2883L24.0712 81.9512H25.0705L26.7254 86.6159H26.7879L28.4428 81.9512H29.442Z" fill="white"/>
<path d="M33.2317 87.9268C32.654 87.9268 32.1557 87.8023 31.7367 87.5534C31.3204 87.3018 30.999 86.9512 30.7726 86.5015C30.5489 86.0493 30.437 85.5234 30.437 84.9238C30.437 84.3242 30.5489 83.7957 30.7726 83.3384C30.999 82.8786 31.3139 82.5203 31.7172 82.2637C32.1231 82.0046 32.5967 81.875 33.138 81.875C33.4502 81.875 33.7586 81.9258 34.063 82.0274C34.3675 82.1291 34.6446 82.2942 34.8944 82.5229C35.1442 82.749 35.3433 83.0488 35.4916 83.4223C35.6399 83.7957 35.7141 84.2556 35.7141 84.8018V85.1829H31.0927V84.4055H34.7773C34.7773 84.0752 34.7097 83.7805 34.5744 83.5213C34.4416 83.2622 34.2517 83.0577 34.0045 82.9078C33.7599 82.7579 33.4711 82.6829 33.138 82.6829C32.7711 82.6829 32.4536 82.7718 32.1856 82.9497C31.9202 83.125 31.7159 83.3537 31.5728 83.6357C31.4297 83.9177 31.3581 84.22 31.3581 84.5427V85.061C31.3581 85.503 31.4362 85.8778 31.5923 86.1852C31.751 86.4901 31.9709 86.7226 32.252 86.8826C32.533 87.0401 32.8596 87.1189 33.2317 87.1189C33.4737 87.1189 33.6922 87.0859 33.8874 87.0198C34.0852 86.9512 34.2556 86.8496 34.3987 86.7149C34.5418 86.5777 34.6524 86.4075 34.7305 86.2043L35.6204 86.4482C35.5267 86.7429 35.3693 87.002 35.1481 87.2256C34.9269 87.4466 34.6537 87.6194 34.3285 87.7439C34.0032 87.8659 33.6376 87.9268 33.2317 87.9268Z" fill="white"/>
<path d="M38.3113 80V87.8049H37.3901V80H38.3113Z" fill="white"/>
<path d="M42.7088 87.9268C42.1676 87.9268 41.6927 87.8011 41.2842 87.5495C40.8782 87.298 40.5608 86.9461 40.3318 86.4939C40.1054 86.0417 39.9922 85.5132 39.9922 84.9085C39.9922 84.2988 40.1054 83.7665 40.3318 83.3117C40.5608 82.857 40.8782 82.5038 41.2842 82.2523C41.6927 82.0008 42.1676 81.875 42.7088 81.875C43.2501 81.875 43.7237 82.0008 44.1296 82.2523C44.5381 82.5038 44.8556 82.857 45.082 83.3117C45.311 83.7665 45.4254 84.2988 45.4254 84.9085C45.4254 85.5132 45.311 86.0417 45.082 86.4939C44.8556 86.9461 44.5381 87.298 44.1296 87.5495C43.7237 87.8011 43.2501 87.9268 42.7088 87.9268ZM42.7088 87.1189C43.12 87.1189 43.4582 87.016 43.7237 86.8102C43.9891 86.6044 44.1855 86.3338 44.313 85.9985C44.4405 85.6631 44.5043 85.2998 44.5043 84.9085C44.5043 84.5173 44.4405 84.1527 44.313 83.8148C44.1855 83.4769 43.9891 83.2038 43.7237 82.9954C43.4582 82.7871 43.12 82.6829 42.7088 82.6829C42.2977 82.6829 41.9594 82.7871 41.694 82.9954C41.4286 83.2038 41.2321 83.4769 41.1046 83.8148C40.9771 84.1527 40.9133 84.5173 40.9133 84.9085C40.9133 85.2998 40.9771 85.6631 41.1046 85.9985C41.2321 86.3338 41.4286 86.6044 41.694 86.8102C41.9594 87.016 42.2977 87.1189 42.7088 87.1189Z" fill="white"/>
<path d="M47.1064 90V81.9512H47.9963V82.8811H48.1056C48.1732 82.7795 48.2669 82.6499 48.3866 82.4924C48.5089 82.3323 48.6833 82.19 48.9096 82.0655C49.1386 81.9385 49.4483 81.875 49.8386 81.875C50.3434 81.875 50.7884 81.9982 51.1735 82.2447C51.5586 82.4911 51.8592 82.8404 52.0751 83.2927C52.2911 83.7449 52.3991 84.2785 52.3991 84.8933C52.3991 85.5132 52.2911 86.0506 52.0751 86.5053C51.8592 86.9576 51.5599 87.3082 51.1774 87.5572C50.7949 87.8036 50.3538 87.9268 49.8542 87.9268C49.4691 87.9268 49.1607 87.8646 48.9292 87.7401C48.6976 87.6131 48.5193 87.4695 48.3944 87.3095C48.2695 87.1468 48.1732 87.0122 48.1056 86.9055H48.0275V90H47.1064ZM48.0119 84.878C48.0119 85.3201 48.0783 85.7101 48.211 86.048C48.3437 86.3834 48.5375 86.6463 48.7925 86.8369C49.0476 87.0249 49.3598 87.1189 49.7293 87.1189C50.1144 87.1189 50.4358 87.0198 50.6934 86.8216C50.9536 86.6209 51.1488 86.3516 51.2789 86.0137C51.4116 85.6733 51.4779 85.2947 51.4779 84.878C51.4779 84.4665 51.4129 84.0955 51.2828 83.7652C51.1553 83.4324 50.9614 83.1695 50.7012 82.9764C50.4436 82.7807 50.1196 82.6829 49.7293 82.6829C49.3546 82.6829 49.0397 82.7757 48.7847 82.9611C48.5297 83.1441 48.3372 83.4007 48.2071 83.7309C48.077 84.0587 48.0119 84.4411 48.0119 84.878Z" fill="white"/>
<path d="M54.079 87.8049V81.9512H54.969V82.8659H55.047C55.1719 82.5534 55.3736 82.3107 55.652 82.138C55.9305 81.9627 56.2648 81.875 56.6552 81.875C57.0507 81.875 57.3798 81.9627 57.6427 82.138C57.9081 82.3107 58.1149 82.5534 58.2633 82.8659H58.3257C58.4792 82.5635 58.7095 82.3234 59.0166 82.1456C59.3236 81.9652 59.6918 81.875 60.1212 81.875C60.6572 81.875 61.0957 82.0389 61.4366 82.3666C61.7775 82.6918 61.9479 83.1987 61.9479 83.8872V87.8049H61.0267V83.8872C61.0267 83.4553 60.9057 83.1466 60.6637 82.9611C60.4217 82.7757 60.1368 82.6829 59.8089 82.6829C59.3874 82.6829 59.0608 82.8074 58.8292 83.0564C58.5976 83.3028 58.4818 83.6153 58.4818 83.9939V87.8049H57.5451V83.7957C57.5451 83.4629 57.4345 83.1949 57.2133 82.9916C56.9921 82.7858 56.7072 82.6829 56.3585 82.6829C56.1191 82.6829 55.8953 82.7452 55.6872 82.8697C55.4816 82.9942 55.3151 83.1669 55.1875 83.388C55.0626 83.6065 55.0002 83.8592 55.0002 84.1463V87.8049H54.079Z" fill="white"/>
<path d="M66.4206 87.9268C65.8429 87.9268 65.3446 87.8023 64.9256 87.5534C64.5093 87.3018 64.1879 86.9512 63.9616 86.5015C63.7378 86.0493 63.6259 85.5234 63.6259 84.9238C63.6259 84.3242 63.7378 83.7957 63.9616 83.3384C64.1879 82.8786 64.5028 82.5203 64.9061 82.2637C65.3121 82.0046 65.7856 81.875 66.3269 81.875C66.6391 81.875 66.9475 81.9258 67.252 82.0274C67.5564 82.1291 67.8335 82.2942 68.0833 82.5229C68.3331 82.749 68.5322 83.0488 68.6805 83.4223C68.8288 83.7957 68.903 84.2556 68.903 84.8018V85.1829H64.2816V84.4055H67.9662C67.9662 84.0752 67.8986 83.7805 67.7633 83.5213C67.6306 83.2622 67.4406 83.0577 67.1934 82.9078C66.9488 82.7579 66.66 82.6829 66.3269 82.6829C65.96 82.6829 65.6425 82.7718 65.3745 82.9497C65.1091 83.125 64.9048 83.3537 64.7617 83.6357C64.6186 83.9177 64.547 84.22 64.547 84.5427V85.061C64.547 85.503 64.6251 85.8778 64.7812 86.1852C64.94 86.4901 65.1598 86.7226 65.4409 86.8826C65.7219 87.0401 66.0485 87.1189 66.4206 87.1189C66.6626 87.1189 66.8811 87.0859 67.0763 87.0198C67.2741 86.9512 67.4445 86.8496 67.5876 86.7149C67.7307 86.5777 67.8413 86.4075 67.9194 86.2043L68.8093 86.4482C68.7157 86.7429 68.5582 87.002 68.337 87.2256C68.1159 87.4466 67.8426 87.6194 67.5174 87.7439C67.1921 87.8659 66.8265 87.9268 66.4206 87.9268Z" fill="white"/>
<path d="M71.5002 84.2835V87.8049H70.579V81.9512H71.469V82.8659H71.547C71.6875 82.5686 71.9009 82.3298 72.1872 82.1494C72.4734 81.9665 72.8429 81.875 73.2957 81.875C73.7016 81.875 74.0568 81.9563 74.3612 82.1189C74.6657 82.279 74.9025 82.5229 75.0716 82.8506C75.2408 83.1758 75.3253 83.5874 75.3253 84.0854V87.8049H74.4042V84.1463C74.4042 83.6865 74.2819 83.3283 74.0373 83.0716C73.7927 82.8125 73.457 82.6829 73.0302 82.6829C72.7362 82.6829 72.4734 82.7452 72.2418 82.8697C72.0128 82.9942 71.832 83.1758 71.6993 83.4146C71.5665 83.6535 71.5002 83.9431 71.5002 84.2835Z" fill="white"/>
<path d="M79.8907 81.9512V82.7134H76.7838V81.9512H79.8907ZM77.6893 80.5488H78.6105V86.128C78.6105 86.3821 78.6482 86.5727 78.7237 86.6997C78.8017 86.8242 78.9006 86.908 79.0203 86.9512C79.1426 86.9919 79.2714 87.0122 79.4067 87.0122C79.5082 87.0122 79.5915 87.0071 79.6565 86.997C79.7216 86.9842 79.7736 86.9741 79.8126 86.9665L80 87.7744C79.9375 87.7973 79.8504 87.8201 79.7385 87.843C79.6266 87.8684 79.4848 87.8811 79.313 87.8811C79.0528 87.8811 78.7978 87.8265 78.548 87.7172C78.3008 87.608 78.0952 87.4416 77.9313 87.218C77.77 86.9944 77.6893 86.7124 77.6893 86.372V80.5488Z" fill="white"/>
<path d="M13.8446 10V19.8462H12.59V11.25H12.5293L10 12.8462V11.6346L12.59 10H13.8446Z" fill="white"/>
<path d="M24.0208 19.6346C23.2924 19.6346 22.6651 19.4712 22.139 19.1442C21.6129 18.8173 21.2082 18.367 20.9249 17.7933C20.6416 17.2196 20.5 16.5641 20.5 15.8269C20.5 15.0769 20.645 14.4151 20.935 13.8413C21.2285 13.2644 21.6365 12.8141 22.1592 12.4904C22.6853 12.1635 23.2991 12 24.0006 12C24.5469 12 25.0393 12.0962 25.4777 12.2885C25.9162 12.4808 26.2753 12.75 26.5552 13.0962C26.8352 13.4423 27.0088 13.8462 27.0763 14.3077H25.8824C25.7914 13.9712 25.589 13.6731 25.2754 13.4135C24.9651 13.1506 24.5469 13.0192 24.0208 13.0192C23.5554 13.0192 23.1474 13.1346 22.7966 13.3654C22.4493 13.5929 22.1778 13.9151 21.9822 14.3317C21.79 14.7452 21.6938 15.2308 21.6938 15.7885C21.6938 16.359 21.7883 16.8558 21.9771 17.2788C22.1694 17.7019 22.4392 18.0304 22.7865 18.2644C23.1373 18.4984 23.5487 18.6154 24.0208 18.6154C24.3311 18.6154 24.6127 18.5641 24.8656 18.4615C25.1186 18.359 25.3327 18.2115 25.5081 18.0192C25.6835 17.8269 25.8082 17.5962 25.8824 17.3269H27.0763C27.0088 17.7628 26.8419 18.1554 26.5755 18.5048C26.3124 18.851 25.9634 19.1266 25.5283 19.3317C25.0967 19.5337 24.5942 19.6346 24.0208 19.6346Z" fill="white"/>
<path d="M28.8215 19.4808V12.0962H29.9749V13.25H30.0761C30.238 12.8558 30.4993 12.5497 30.8602 12.3317C31.221 12.1106 31.6544 12 32.1603 12C32.6729 12 33.0995 12.1106 33.4401 12.3317C33.7841 12.5497 34.0522 12.8558 34.2444 13.25H34.3254C34.5243 12.8686 34.8228 12.5657 35.2208 12.3413C35.6187 12.1138 36.0959 12 36.6524 12C37.3471 12 37.9154 12.2067 38.3571 12.6202C38.7989 13.0304 39.0198 13.6699 39.0198 14.5385V19.4808H37.826V14.5385C37.826 13.9936 37.6692 13.6042 37.3555 13.3702C37.0419 13.1362 36.6726 13.0192 36.2477 13.0192C35.7013 13.0192 35.2781 13.1763 34.9779 13.4904C34.6778 13.8013 34.5277 14.1955 34.5277 14.6731V19.4808H33.3136V14.4231C33.3136 14.0032 33.1703 13.6651 32.8836 13.4087C32.597 13.149 32.2277 13.0192 31.7758 13.0192C31.4655 13.0192 31.1755 13.0978 30.9057 13.2548C30.6393 13.4119 30.4234 13.6298 30.2582 13.9087C30.0963 14.1843 30.0154 14.5032 30.0154 14.8654V19.4808H28.8215Z" fill="white"/>
</g>
<rect x="0.5" y="0.5" width="99" height="99" stroke="#301400"/>
<defs>
<clipPath id="clip0_6_2">
<rect width="100" height="100" fill="white"/>
</clipPath>
</defs>
</svg>
