<svg width="456" height="48" viewBox="0 0 456 48" fill="none" xmlns="http://www.w3.org/2000/svg">
<g clip-path="url(#clip0_2_20)">
<path d="M31.98 31.86H23.52C22.68 35.34 20.46 37.92 16.32 37.92C14.04 37.92 12.18 37.08 10.98 35.7C9.42 33.9 8.88 31.8 8.88 23.64C8.88 15.48 9.42 13.38 10.98 11.58C12.18 10.2 14.04 9.36 16.32 9.36C20.46 9.36 22.62 11.94 23.46 15.42H31.98C30.42 6.48 24.3 1.92 16.32 1.92C11.4 1.92 7.8 3.54 4.86 6.42C0.6 10.68 0.54 15.48 0.54 23.64C0.54 31.8 0.6 36.6 4.86 40.86C7.8 43.74 11.4 45.36 16.32 45.36C24.24 45.36 30.42 40.8 31.98 31.86ZM85.327 45V2.28H76.987V45H85.327ZM160.548 9.72V2.28H129.888V9.72H141.048V45H149.388V9.72H160.548Z" fill="white"/>
<path d="M308 23.64C308 16.56 307.94 12.18 305.3 8.52C302.24 4.26 298.22 2.28 292.4 2.28H276.98V45H292.4C298.22 45 302.24 43.02 305.3 38.76C307.94 35.1 308 30.72 308 23.64ZM299.66 23.64C299.66 30.36 299.48 33.06 297.92 34.92C296.54 36.66 294.5 37.56 291.68 37.56H285.32V9.72H291.68C294.5 9.72 296.54 10.62 297.92 12.36C299.48 14.22 299.66 16.92 299.66 23.64ZM382.471 45V37.56H362.671V27.18H379.531V19.74H362.671V9.72H382.471V2.28H354.331V45H382.471ZM456.179 45V37.56H436.799V2.28H428.459V45H456.179Z" fill="white"/>
<path d="M198.5 47.3334L210.633 12.0709L208.242 6.50002H201V0.666687H210.167C211.392 0.666687 212.442 1.42502 212.879 2.50419L229.592 41.5H237V47.3334H227.667C226.413 47.3334 225.362 46.5459 224.954 45.4667L214.046 20.0625L204.683 47.3334H198.5Z" fill="#DC3131"/>
</g>
<defs>
<clipPath id="clip0_2_20">
<rect width="456" height="48" fill="white"/>
</clipPath>
</defs>
</svg>
